{"title":"Malone 1987 DVDRip XviD","uid":6815705,"size":1335641956,"categoryP":"video","categoryS":"movies","magnet":"?xt=urn:btih:c6caec04b8924cf152877b9e5414c5d3befe3ae9&amp;dn=Malone+1987+DVDRip+XviD&amp;tr=udp%3A%2F%2Ftracker.openbittorrent.com%3A80&amp;tr=udp%3A%2F%2Fopen.demonii.com%3A1337&amp;tr=udp%3A%2F%2Ftracker.coppersurfer.tk%3A6969&amp;tr=udp%3A%2F%2Fexodus.desync.com%3A6969","seeders":0,"leechers":0,"uploader":null,"files":2,"time":1321194463,"description":"sharedump.org\n\nMalone 1987 DVDRip XviD TF1\n\nEx-CIA hit-man running from his past (Malone) finds just how difficult it is to retire when he runs... See full summary Ã‚Â»\n\nDirector:\n\nHarley Cokeliss\n\nWriters:\n\nChristopher Frank (screenplay), William P. Wingate (novel)\n\nStars:\n\nBurt Reynolds, Cliff Robertson and Kenneth McMillan\n\n\n\nID : 0\nFormat : MPEG-4 Visual\nFormat profile : Advanced Simple@L5\nFormat settings, BVOP : 2\nFormat settings, QPel : No\nFormat settings, GMC : No warppoints\nFormat settings, Matrix : Default (MPEG)\nCodec ID : XVID\nCodec ID/Hint : XviD\nDuration : 1h 31mn\nBit rate : 89.3 Kbps\nWidth : 720 pixels\nHeight : 540 pixels\nDisplay aspect ratio : 4:3\nFrame rate : 29.970 fps\nColor space : YUV\nChroma subsampling : 4:2:0\nBit depth : 8 bits\nScan type : Progressive\nCompression mode : Lossy\nBits/(Pixel*Frame) : 0.008\nStream size : 58.5 MiB (5%)\nWriting library : XviD 1.2.1 (UTC 2008-12-04)\n\n\n\nID : 1\nFormat : MPEG Audio\nCodec ID : 55\nCodec ID/Hint : MP3\nDuration : 1h 31mn\nBit rate : 128 Kbps\nChannel(s) : 2 channels\nSampling rate : 48.0 KHz\nCompression mode : Lossy\nStream size : 83.9 MiB (7%)\nAlignment : Aligned on interleaves\n\n[youtube]l8bpN0y1TAw[/youtube]","torrent":{"xt":"urn:btih:c6caec04b8924cf152877b9e5414c5d3befe3ae9","amp;dn":"Malone+1987+DVDRip+XviD","amp;tr":["udp%3A%2F%2Ftracker.openbittorrent.com%3A80","udp%3A%2F%2Fopen.demonii.com%3A1337","udp%3A%2F%2Ftracker.coppersurfer.tk%3A6969","udp%3A%2F%2Fexodus.desync.com%3A6969"],"infoHash":"c6caec04b8924cf152877b9e5414c5d3befe3ae9","infoHashBuffer":{"type":"Buffer","data":[198,202,236,4,184,146,76,241,82,135,123,158,84,20,197,211,190,254,58,233]},"announce":[],"urlList":[]}}